<svg xmlns="http://www.w3.org/2000/svg" width="220" height="180" viewBox="0 0 180 180" role="img" aria-label="Mug"><rect width="180" height="180" rx="24" fill="#f8fafc"/><rect x="12" y="12" width="156" height="156" rx="18" fill="#edf4fb"/><ellipse cx="86" cy="116" rx="42" ry="9" fill="#dbe5f2" opacity=".45"/><path d="M56 54h61v68c0 13-11 24-24 24H80c-13 0-24-11-24-24V54z" fill="#f8fafc" stroke="#b8c4d4" stroke-width="4"/><ellipse cx="86.5" cy="54" rx="30.5" ry="11" fill="#ffffff" stroke="#b8c4d4" stroke-width="4"/><path d="M117 73h14c14 0 23 10 23 23s-9 23-23 23h-14v-13h13c6 0 10-4 10-10s-4-10-10-10h-13V73z" fill="#f8fafc" stroke="#b8c4d4" stroke-width="4"/><rect x="72" y="84" width="30" height="22" rx="5" fill="#5aa7ff"/></svg>