<svg xmlns="http://www.w3.org/2000/svg" width="220" height="180" viewBox="0 0 180 180" role="img" aria-label="Hat"><rect width="180" height="180" rx="24" fill="#f8fafc"/><rect x="12" y="12" width="156" height="156" rx="18" fill="#edf4fb"/><ellipse cx="88" cy="135" rx="55" ry="11" fill="#dbe5f2" opacity=".45"/><path d="M39 96c5-31 26-49 59-49 31 0 52 18 58 49H39z" fill="#f1f5f9" stroke="#9fb0c5" stroke-width="4"/><path d="M34 99c29-3 68-4 111 0 12 1 20 12 16 23-40-7-83-7-125 0-6-10-4-21-2-23z" fill="#e2e8f0" stroke="#9fb0c5" stroke-width="4"/><path d="M88 51v45" stroke="#9fb0c5" stroke-width="3"/><circle cx="96" cy="78" r="15" fill="#5aa7ff" opacity=".85"/></svg>