<svg xmlns="http://www.w3.org/2000/svg" width="220" height="180" viewBox="0 0 180 180" role="img" aria-label="Hoodie"><rect width="180" height="180" rx="24" fill="#f8fafc"/><rect x="12" y="12" width="156" height="156" rx="18" fill="#edf4fb"/><ellipse cx="91" cy="150" rx="56" ry="8" fill="#dbe5f2" opacity=".45"/><path d="M66 61c1-24 49-24 51 0l23 16-13 25-12-7v50H67V95l-12 7-13-25 24-16z" fill="#dbeafe" stroke="#7fa3d0" stroke-width="4"/><path d="M70 65c10 12 34 12 44 0" fill="none" stroke="#7fa3d0" stroke-width="4"/><path d="M78 103h28v28H78z" rx="7" fill="#bfdbfe"/><path d="M84 66c0 18 0 24-7 37M101 66c0 18 0 24 7 37" stroke="#7fa3d0" stroke-width="3"/></svg>